<svg width="60" height="60" viewBox="0 0 60 60" fill="none" xmlns="http://www.w3.org/2000/svg">
<rect x="60" y="60" width="60" height="60" rx="14" transform="rotate(180 60 60)" fill="#76BA3F"/>
<path d="M25.4587 24.5581C25.5312 24.5713 27.2451 24.9602 28.2141 27.4321C28.2141 27.4519 28.2206 27.4783 28.2206 27.498C28.3327 28.322 28.5568 29.1262 28.7744 29.9041C28.8798 30.2864 28.9853 30.6687 29.0776 31.0576C29.5522 33.0286 29.6708 35.0654 29.4467 37.0693C28.3063 37.6758 26.9616 36.977 26.9484 36.9639C26.8825 36.9309 26.8166 36.9111 26.7441 36.9111C26.5925 36.9111 26.4475 36.9902 26.3683 37.1353C26.2563 37.3396 26.3354 37.6033 26.5397 37.7153C26.6057 37.7483 27.9372 38.4536 29.3149 38.0383C29.0776 39.4622 28.6689 40.853 28.0822 42.178C27.7263 42.9888 27.1989 43.9841 26.3222 44.439C26.1113 44.5444 26.0322 44.8015 26.1376 45.0124C26.2431 45.2234 26.5002 45.3025 26.7111 45.197C27.0671 45.0124 27.3637 44.7686 27.6274 44.4983C29.0446 45.342 30.7058 44.6829 30.7783 44.6499C30.9958 44.5576 31.0947 44.3137 31.009 44.0962C30.9233 43.8787 30.6728 43.7732 30.4553 43.8655C30.4421 43.8721 29.2028 44.3599 28.1679 43.8259C28.458 43.3975 28.6821 42.9426 28.8666 42.5273C29.2424 41.677 29.5456 40.8003 29.7829 39.9038C32.6899 39.8972 33.8896 38.2427 33.9357 38.1702C34.0676 37.979 34.0214 37.7153 33.8303 37.5769C33.7578 37.5242 33.6721 37.4978 33.5864 37.4978C33.4545 37.4978 33.3161 37.5637 33.237 37.6824C33.2304 37.6956 32.301 38.981 29.9872 39.0535C30.5739 36.364 30.5541 33.5493 29.9016 30.8599C29.8093 30.4644 29.6972 30.0754 29.5917 29.6799C29.3742 28.8955 29.1699 28.1572 29.0644 27.386C28.9391 26.4895 28.9326 25.2041 29.5917 24.1824C29.717 23.9846 29.6642 23.7209 29.4665 23.5957C29.394 23.5496 29.3149 23.5298 29.2358 23.5298C29.0974 23.5298 28.9589 23.5957 28.8798 23.7209C28.4909 24.3208 28.2932 24.9866 28.2075 25.6326C27.0671 24.0308 25.696 23.7407 25.6235 23.7275C25.5971 23.7209 25.5707 23.7209 25.5444 23.7209C25.3466 23.7209 25.1686 23.8594 25.1291 24.0637C25.0829 24.2878 25.2346 24.512 25.4587 24.5581Z" fill="white"/>
<path d="M19.4403 26.305C16.5202 25.5008 14.5954 23.2267 15.1425 21.2228C15.6962 19.2189 18.5109 18.2499 21.4311 19.0541C24.3578 19.8583 26.2826 22.1324 25.7289 24.1363C25.1818 26.1468 22.3671 27.1158 19.4403 26.305ZM28.0954 17.5643C29.3083 14.7892 31.8329 13.2071 33.7379 14.0377C35.643 14.8683 36.1967 17.795 34.9838 20.5702C33.7709 23.3519 31.2462 24.9339 29.3412 24.0968C27.4362 23.2728 26.8825 20.3461 28.0954 17.5643ZM34.14 31.4466C36.0517 29.0934 38.9059 28.243 40.5209 29.5548C42.1293 30.8666 41.8854 33.8329 39.9738 36.1861C38.0622 38.5394 35.2079 39.3898 33.5929 38.0846C31.9779 36.7728 32.2284 33.8065 34.14 31.4466Z" fill="white"/>
<path d="M30.4421 44.5709C30.1982 44.4127 30.1784 44.0699 30.4025 43.8853C31.5363 42.9625 34.6542 40.6224 37.1987 40.4576C39.7563 40.2928 43.7179 42.3099 44.8188 43.0943C45.0429 43.2525 45.0627 43.5689 44.8583 43.7535C43.8696 44.6697 40.1979 47.0757 37.6403 47.2405C35.0893 47.4053 31.6813 45.3751 30.4421 44.5709ZM14.9184 31.5718C14.7931 31.3148 14.9513 31.0049 15.2414 30.9654C16.6257 30.7676 20.2314 30.3985 22.3473 31.4795C24.4963 32.5804 26.7177 36.1136 27.2319 37.2803C27.3373 37.511 27.1989 37.7813 26.9484 37.834C25.7026 38.0977 21.5827 38.2691 19.4338 37.1749C17.3046 36.0872 15.5446 32.844 14.9184 31.5718Z" fill="white"/>
</svg>
